<svg width="124" height="32" viewBox="0 0 124 32" fill="none" xmlns="http://www.w3.org/2000/svg">
<path d="M119.142 31.9963C120.533 31.9963 121.69 31.5438 122.613 30.6315C123.536 29.7229 124 28.5734 124 27.1794C124 25.7598 123.547 24.6067 122.639 23.7272C121.73 22.8478 120.565 22.4062 119.146 22.4062C117.755 22.4062 116.594 22.8478 115.671 23.7272C114.747 24.6067 114.284 25.7598 114.284 27.1794C114.284 28.5697 114.755 29.7229 115.689 30.6315C116.627 31.5438 117.777 31.9963 119.142 31.9963ZM99.3701 26.8838C98.4321 26.8838 97.6948 26.6721 97.1546 26.2452C96.6144 25.8182 96.3443 25.2526 96.3443 24.541C96.3443 22.9791 97.5232 22.1982 99.8811 22.1982H103.374V24.2016C103.06 25.0847 102.549 25.7489 101.841 26.205C101.133 26.6575 100.308 26.8838 99.3701 26.8838ZM99.6694 8.13776C97.8225 8.13776 95.9829 8.37131 94.1507 8.84206C92.3184 9.3128 90.7635 9.97332 89.486 10.8236L92.2125 16.3193C93.0082 15.6953 93.9754 15.2063 95.1106 14.8487C96.2457 14.4947 97.3699 14.3159 98.4758 14.3159C101.6 14.3159 103.235 15.5384 103.374 17.9797H98.7715C95.2785 17.9797 92.6943 18.5818 91.0153 19.7897C89.34 20.9976 88.5005 22.6945 88.5005 24.8804C88.5005 26.2415 88.8327 27.4567 89.5006 28.5223C90.1685 29.5879 91.154 30.4345 92.4607 31.0585C93.7674 31.6825 95.315 31.9963 97.1035 31.9963C100.483 31.9963 102.757 30.876 103.922 28.6318V31.6132H111.462V18.7898C111.462 15.1844 110.455 12.5059 108.437 10.7579C106.429 9.01357 103.502 8.13776 99.6694 8.13776ZM73.5466 25.5628C72.1268 25.5628 70.9625 25.0738 70.0536 24.0921C69.1448 23.1142 68.6922 21.7566 68.6922 20.0233C68.6922 18.3191 69.1448 16.9835 70.0536 16.0201C70.9625 15.053 72.1268 14.5713 73.5466 14.5713C74.9665 14.5713 76.1235 15.053 77.0214 16.0201C77.9156 16.9871 78.3646 18.3191 78.3646 20.0233C78.3646 21.7566 77.912 23.1142 77.0032 24.0921C76.0907 25.0738 74.9409 25.5628 73.5466 25.5628ZM78.2332 0.00364721V10.528C76.7258 8.93694 74.5978 8.14141 71.8421 8.14141C69.7397 8.14141 67.8235 8.6231 66.0898 9.59015C64.356 10.5572 62.9873 11.9402 61.9799 13.743C60.9689 15.5457 60.4652 17.6403 60.4652 20.0269C60.4652 22.4135 60.9689 24.5155 61.9799 26.3328C62.9873 28.1501 64.3597 29.5477 66.0898 30.5294C67.8199 31.511 69.7397 32 71.8421 32C74.8533 32 77.109 31.1059 78.6164 29.3142V31.6132H86.3288V0L78.2332 0.00364721ZM48.5335 8.13776C47.0553 8.13776 45.6938 8.3859 44.4419 8.8822C43.1899 9.37849 42.1132 10.0974 41.2044 11.0316V8.51727H33.492V31.6095H41.5876V20.4466C41.5876 18.6293 42.0074 17.2681 42.8432 16.3558C43.6827 15.4471 44.7959 14.991 46.1902 14.991C48.7196 14.991 49.9825 16.5674 49.9825 19.7204V31.6059H58.0781V18.3994C58.0781 14.9618 57.2058 12.3927 55.4575 10.6886C53.7128 8.99167 51.4024 8.13776 48.5335 8.13776ZM25.4804 1.79177L17.2132 21.2202L9.11759 1.79177H0L12.742 31.6132H21.053L33.8351 1.79177H25.4804Z" fill="#312F4F"/>
</svg>
