<svg width="21" height="20" viewBox="0 0 21 20" fill="none" xmlns="http://www.w3.org/2000/svg">
<path d="M15.1149 13.4539L14.8413 13.8026L15.1547 14.1161L19.6261 18.5875L18.9208 19.2929L14.4493 14.8214L14.1359 14.508L13.7871 14.7816C12.4207 15.8536 10.7032 16.5 8.83325 16.5C4.40939 16.5 0.833252 12.9239 0.833252 8.5C0.833252 4.07614 4.40939 0.5 8.83325 0.5C13.2571 0.5 16.8333 4.07614 16.8333 8.5C16.8333 10.37 16.1868 12.0874 15.1149 13.4539ZM1.83325 8.5C1.83325 12.3636 4.96961 15.5 8.83325 15.5C12.6969 15.5 15.8333 12.3636 15.8333 8.5C15.8333 4.63636 12.6969 1.5 8.83325 1.5C4.96961 1.5 1.83325 4.63636 1.83325 8.5Z" fill="#312F4F" stroke="#312F4F"/>
</svg>
